<svg width="265" height="12" viewBox="0 0 265 12" fill="none" xmlns="http://www.w3.org/2000/svg">
<path d="M2 4.3672C4.8312 4.3672 7.60064 3.74131 10.4022 3.49651C14.6367 3.12651 18.8337 3.34309 23.0708 3.19177C23.5838 3.17345 23.9828 2.8648 24.4639 2.71289C26.6491 2.02282 28.9891 2.03741 31.2553 2.01633C35.5051 1.9768 39.567 1.95501 43.7497 2.62582C48.5674 3.39846 53.3722 4.3672 58.2685 4.3672C64.0073 4.3672 69.3823 6.28296 74.964 7.10989C84.3793 8.50473 93.7645 8.81604 103.24 9.63489C111.267 10.3286 119.504 9.85257 127.554 9.85257C131.028 9.85257 134.384 9.2204 137.806 8.67713C141.855 8.03448 146.017 8.28532 150.105 8.28532C155.463 8.28532 160.932 7.78129 166.256 7.19695C170.951 6.68164 175.626 5.62358 180.361 5.54264C188.143 5.40963 195.903 5.15083 203.696 5.15083C207.448 5.15083 211.447 5.18863 215.146 4.54134C221.75 3.38565 229.043 2.73493 235.52 4.75902C237.613 5.41316 239.81 5.25112 241.919 5.76031C243.267 6.08565 244.233 7.18626 245.555 7.47993C250.936 8.67586 257.076 7.89351 262.555 7.89351" stroke="#5773FF" stroke-width="3" stroke-linecap="round"/>
</svg>
